<?xml version="1.0" standalone="no"?>
<!DOCTYPE svg PUBLIC "-//W3C//DTD SVG 20010904//EN"
 "http://www.w3.org/TR/2001/REC-SVG-20010904/DTD/svg10.dtd">
<svg version="1.0" xmlns="http://www.w3.org/2000/svg"
 width="1280.000000pt" height="720.000000pt" viewBox="0 0 1280.000000 720.000000"
 preserveAspectRatio="xMidYMid meet">

<g transform="translate(0.000000,720.000000) scale(0.100000,-0.100000)"
fill="#000000" stroke="none">
<path d="M5205 5243 c-33 -13 -82 -35 -110 -46 -58 -26 -163 -125 -188 -179
-9 -20 -17 -52 -17 -72 0 -20 -2 -36 -5 -36 -2 0 -48 16 -102 36 -88 32 -105
35 -168 30 -86 -6 -165 -26 -270 -69 -136 -55 -160 -70 -163 -104 -2 -16 3
-34 10 -40 7 -5 69 -23 138 -38 69 -16 143 -37 165 -48 l40 -20 -30 -13 c-17
-8 -55 -25 -86 -38 -60 -26 -130 -97 -208 -212 -45 -67 -91 -164 -91 -193 0
-18 29 -51 45 -51 5 0 18 9 29 19 22 20 203 91 232 91 14 0 15 -2 3 -19 -83
-115 -115 -163 -176 -266 -128 -217 -127 -216 -131 -337 -5 -144 -7 -143 168
-72 74 29 140 54 145 54 14 0 3 -122 -18 -191 -48 -154 -240 -448 -294 -449
-30 0 -57 -42 -49 -75 8 -31 45 -42 86 -25 21 9 62 10 142 5 71 -4 135 -3 172
4 33 6 61 9 63 7 2 -2 7 -29 10 -59 5 -46 2 -59 -17 -85 -20 -27 -22 -35 -12
-57 24 -52 112 -24 250 80 56 43 70 70 52 104 -17 33 -59 27 -100 -15 -62 -64
-63 -64 -94 39 -15 51 -32 98 -38 105 -15 17 -38 15 -83 -9 -31 -17 -64 -22
-150 -26 -108 -6 -109 -6 -95 14 231 318 278 424 275 615 -2 117 -10 138 -54
138 -15 0 -65 -19 -111 -41 -47 -23 -105 -50 -128 -60 l-44 -19 7 52 c9 72 37
122 205 377 105 158 152 222 172 229 31 12 43 43 28 72 -9 16 -21 20 -66 20
-68 0 -186 -26 -238 -52 -31 -16 -38 -17 -33 -5 9 23 92 129 129 164 44 42
184 117 193 103 11 -18 63 -12 75 9 18 34 11 51 -40 102 -59 59 -132 95 -213
104 -63 8 -79 19 -44 30 204 62 272 66 413 26 173 -49 194 -42 194 63 0 69 11
90 80 154 33 30 107 71 158 86 33 11 36 -12 12 -85 -12 -35 -25 -109 -30 -164
-12 -141 -20 -138 185 -90 l165 39 75 68 c42 39 81 86 91 108 10 22 20 40 23
40 16 -1 103 -90 121 -122 24 -46 25 -61 4 -94 -14 -20 -15 -30 -5 -50 14 -32
17 -32 266 26 174 40 185 41 327 38 93 -2 151 -7 158 -14 9 -9 1 -14 -32 -19
-131 -22 -308 -115 -308 -162 0 -7 42 -58 93 -112 67 -73 109 -130 155 -211
57 -102 103 -222 90 -236 -4 -3 -31 2 -62 12 l-56 18 -30 -29 c-17 -16 -30
-33 -30 -38 0 -6 35 -74 77 -151 42 -78 87 -161 99 -186 97 -203 98 -205 133
-378 15 -72 14 -75 -10 -62 -11 7 -44 18 -72 27 -29 8 -77 28 -108 44 -79 39
-145 55 -164 39 -8 -7 -15 -18 -15 -25 0 -7 34 -73 76 -146 108 -190 115 -211
121 -361 4 -92 3 -128 -5 -128 -11 0 -67 23 -140 58 -45 22 -119 88 -137 122
-17 33 -46 45 -74 31 -59 -32 -25 -99 100 -194 53 -40 278 -139 300 -132 38
12 44 43 44 225 0 199 -10 239 -85 350 -22 32 -40 61 -40 63 0 3 33 -7 73 -22
79 -30 181 -92 191 -116 3 -9 18 -15 36 -15 44 0 59 36 37 87 -19 45 -57 221
-57 263 0 16 -4 31 -9 34 -5 3 -12 22 -16 43 -3 20 -17 59 -31 86 -13 28 -24
54 -24 59 0 17 -100 216 -134 267 -20 29 -36 55 -36 57 0 12 48 -22 71 -50 24
-27 30 -30 55 -21 38 14 40 37 15 166 -41 211 -116 360 -239 474 -48 46 -73
75 -68 83 25 40 177 82 297 82 53 0 90 5 97 12 26 26 12 54 -54 111 -88 77
-136 90 -319 91 -140 0 -201 -11 -427 -80 -14 -4 -18 0 -18 18 0 50 -56 142
-123 204 -104 96 -143 119 -175 108 -25 -9 -27 -15 -32 -74 -6 -74 -19 -98
-88 -157 -39 -33 -69 -47 -152 -72 -57 -17 -106 -29 -109 -26 -9 10 20 128 47
193 23 55 33 67 70 85 53 26 66 61 32 89 -35 28 -157 24 -235 -9z"/>
<path d="M6186 4271 c-46 -42 -227 -171 -239 -171 -3 0 -34 -20 -71 -44 -36
-25 -105 -66 -154 -92 -48 -26 -136 -75 -197 -109 -60 -35 -194 -105 -297
-158 l-188 -95 -1 52 c-1 28 -1 107 0 176 1 106 -2 130 -20 166 -73 152 -292
147 -359 -8 -35 -82 -19 -161 47 -226 26 -26 92 -52 132 -52 39 0 98 19 117
37 13 14 17 14 25 2 5 -8 7 -23 4 -34 -2 -11 -5 -50 -5 -86 l0 -66 -87 -58
c-140 -92 -173 -122 -173 -155 0 -27 22 -50 47 -50 4 0 53 34 108 75 l100 74
2 -322 c2 -223 6 -329 15 -344 l11 -23 553 0 553 0 3 568 3 567 52 107 c28 59
54 120 57 135 4 17 21 37 42 51 48 31 61 68 36 101 -31 41 -54 38 -116 -18z
m-1270 -252 c57 -35 78 -107 50 -173 -21 -51 -60 -76 -118 -76 -139 0 -205
131 -115 229 49 53 117 61 183 20z m847 -318 c146 -98 162 -105 195 -89 17 8
40 37 61 76 20 38 37 60 42 55 5 -5 8 -206 7 -474 l-3 -464 -512 -3 -513 -2 0
344 0 345 68 39 c37 22 139 76 227 120 88 45 194 101 235 125 l75 43 8 -23 c5
-14 51 -52 110 -92z"/>
<path d="M5445 3437 c-22 -61 -45 -147 -45 -169 0 -24 4 -27 43 -33 96 -13
109 -11 113 11 3 17 -3 23 -27 28 -18 3 -42 6 -55 6 -13 0 -24 1 -24 3 0 1 9
31 20 65 11 35 20 70 20 77 0 17 -40 27 -45 12z"/>
</g>
</svg>
