<svg width="380" height="380" xmlns="http://www.w3.org/2000/svg" xmlns:xlink="http://www.w3.org/1999/xlink" overflow="hidden"><defs><clipPath id="clip0"><rect x="520" y="108" width="380" height="380"/></clipPath><clipPath id="clip1"><rect x="563" y="151" width="308" height="294"/></clipPath><clipPath id="clip2"><rect x="563" y="151" width="308" height="294"/></clipPath></defs><g clip-path="url(#clip0)" transform="translate(-520 -108)"><rect x="521.5" y="109.5" width="378" height="378" stroke="#FFFFFF" stroke-width="1.33333" stroke-miterlimit="8" fill="#FFFFFF"/><g clip-path="url(#clip1)"><g clip-path="url(#clip2)"><path d="M520.388 524.187C517.088 522.887 512.189 520.688 509.39 519.588 503.591 516.988 493.093 507.09 490.594 501.692 489.694 499.692 488.894 496.493 488.894 494.493 488.894 492.494 488.694 490.894 488.394 490.894 488.194 490.894 483.595 492.494 478.197 494.493 469.399 497.692 467.699 497.992 461.4 497.492 452.802 496.893 444.904 494.893 434.406 490.594 420.809 485.095 418.41 483.595 418.11 480.196 417.91 478.597 418.41 476.797 419.109 476.197 419.809 475.697 426.008 473.898 432.906 472.398 439.805 470.798 447.203 468.699 449.403 467.599L453.402 465.599 450.403 464.3C448.703 463.5 444.904 461.8 441.805 460.5 435.806 457.901 428.807 450.803 421.009 439.305 416.51 432.607 411.911 422.909 411.911 420.009 411.911 418.21 414.81 414.91 416.41 414.91 416.91 414.91 418.21 415.81 419.309 416.81 421.509 418.81 439.605 425.908 442.504 425.908 443.904 425.908 444.004 425.708 442.804 424.008 434.506 412.511 431.307 407.712 425.208 397.414 412.411 375.719 412.511 375.819 412.111 363.721 411.611 349.325 411.411 349.424 428.907 356.523 436.306 359.422 442.904 361.922 443.404 361.922 444.804 361.922 443.704 349.724 441.605 342.826 436.806 327.429 417.61 298.036 412.211 297.936 409.212 297.936 406.512 293.737 407.312 290.437 408.112 287.338 411.811 286.238 415.91 287.938 418.01 288.838 422.109 288.938 430.107 288.438 437.206 288.038 443.604 288.138 447.303 288.838 450.603 289.437 453.402 289.737 453.602 289.537 453.802 289.337 454.302 286.638 454.602 283.639 455.102 279.04 454.802 277.74 452.902 275.141 450.903 272.441 450.703 271.641 451.702 269.442 454.102 264.243 462.9 267.042 476.697 277.44 482.296 281.739 483.695 284.439 481.896 287.838 480.196 291.137 475.997 290.537 471.898 286.338 465.699 279.94 465.599 279.94 462.5 290.237 461 295.336 459.301 300.035 458.701 300.735 457.201 302.435 454.902 302.235 450.403 299.835 447.303 298.136 444.004 297.636 435.406 297.236 424.608 296.636 424.508 296.636 425.908 298.635 449.003 330.429 453.702 341.026 453.402 360.122 453.202 371.82 452.402 373.919 448.003 373.919 446.504 373.919 441.505 372.02 436.906 369.82 432.207 367.521 426.408 364.821 424.108 363.821L419.709 361.922 420.409 367.121C421.309 374.319 424.108 379.318 440.905 404.813 451.402 420.609 456.101 427.008 458.101 427.708 461.2 428.907 462.4 432.007 460.9 434.906 460.001 436.506 458.801 436.906 454.302 436.906 447.503 436.906 435.706 434.306 430.507 431.707 427.408 430.107 426.708 430.007 427.208 431.207 428.107 433.506 436.406 444.104 440.105 447.603 444.504 451.802 458.501 459.301 459.401 457.901 460.5 456.101 465.699 456.701 466.899 458.801 468.699 462.2 467.999 463.9 462.9 468.999 457.001 474.897 449.703 478.497 441.605 479.396 435.306 480.196 433.706 481.296 437.206 482.396 457.601 488.594 464.4 488.994 478.497 484.995 495.793 480.096 497.892 480.796 497.892 491.294 497.892 498.192 498.992 500.292 505.891 506.69 509.19 509.69 516.588 513.789 521.687 515.289 524.987 516.388 525.286 514.089 522.887 506.79 521.687 503.291 520.388 495.893 519.888 490.394 518.688 476.297 517.888 476.597 538.384 481.396L554.88 485.295 562.378 492.094C566.578 495.993 570.477 500.692 571.477 502.891 572.476 505.091 573.476 506.89 573.776 506.89 575.376 506.79 584.074 497.892 585.873 494.693 588.273 490.094 588.373 488.594 586.273 485.295 584.874 483.296 584.774 482.296 585.773 480.296 587.173 477.097 587.473 477.097 612.368 482.896 629.764 486.895 630.864 486.995 645.061 486.695 654.359 486.495 660.157 485.995 660.857 485.295 661.757 484.395 660.957 483.895 657.658 483.396 644.561 481.196 626.865 471.898 626.865 467.199 626.865 466.499 631.064 461.4 636.163 456.001 642.861 448.703 647.06 443.004 651.659 434.906 657.358 424.708 661.957 412.711 660.657 411.311 660.257 411.011 657.558 411.511 654.459 412.511L648.86 414.31 645.86 411.411C644.161 409.811 642.861 408.112 642.861 407.612 642.861 407.012 646.36 400.214 650.559 392.515 654.758 384.717 659.258 376.419 660.457 373.919 670.155 353.624 670.255 353.424 673.754 336.127 675.254 328.929 675.154 328.629 672.755 329.929 671.655 330.629 668.356 331.728 665.556 332.628 662.657 333.428 657.858 335.428 654.758 337.027 646.86 340.926 640.262 342.526 638.362 340.926 637.562 340.226 636.862 339.127 636.862 338.427 636.862 337.727 640.262 331.128 644.461 323.83 655.258 304.834 655.958 302.735 656.558 287.738 656.958 278.54 656.858 274.941 656.058 274.941 654.958 274.941 649.36 277.24 642.061 280.739 637.562 282.939 630.164 289.537 628.364 292.937 626.665 296.236 623.765 297.436 620.966 296.036 615.067 292.837 618.466 286.138 630.964 276.64 636.263 272.641 658.758 262.743 660.957 263.443 664.756 264.643 665.356 267.742 665.356 285.938 665.356 305.834 664.356 309.833 656.858 320.931 654.659 324.13 652.859 327.029 652.859 327.229 652.859 327.529 656.158 326.529 660.157 325.03 668.056 322.03 678.253 315.832 679.253 313.432 679.553 312.532 681.053 311.933 682.852 311.933 687.251 311.933 688.751 315.532 686.552 320.631 684.652 325.13 680.853 342.726 680.853 346.925 680.853 348.525 680.453 350.024 679.953 350.324 679.453 350.624 678.753 352.524 678.353 354.623 678.053 356.623 676.654 360.522 675.254 363.221 673.954 366.021 672.855 368.62 672.855 369.12 672.855 370.82 662.857 390.716 659.458 395.814 657.458 398.714 655.858 401.313 655.858 401.513 655.858 402.713 660.657 399.314 662.957 396.514 665.356 393.815 665.956 393.515 668.456 394.415 672.255 395.814 672.455 398.114 669.955 411.011 665.856 432.107 658.358 447.003 646.06 458.401 641.261 463 638.762 465.899 639.262 466.699 641.761 470.698 656.958 474.897 668.955 474.897 674.254 474.897 677.953 475.397 678.653 476.097 681.253 478.697 679.853 481.496 673.255 487.195 664.456 494.893 659.657 496.193 641.361 496.293 627.364 496.293 621.266 495.193 598.671 488.294 597.271 487.895 596.871 488.294 596.871 490.094 596.871 495.093 591.272 504.291 584.574 510.49 574.176 520.088 570.277 522.387 567.077 521.287 564.578 520.388 564.378 519.788 563.878 513.889 563.278 506.491 561.979 504.091 555.08 498.192 551.181 494.893 548.182 493.493 539.883 490.994 534.185 489.294 529.286 488.095 528.986 488.394 528.086 489.394 530.985 501.192 533.685 507.69 535.984 513.189 536.984 514.389 540.683 516.188 545.982 518.788 547.282 522.287 543.882 525.087 540.383 527.886 528.186 527.486 520.388 524.187Z" transform="matrix(1 0 0 -1.00003 164.068 695.736)"/><path d="M618.466 427.008C613.867 422.809 595.771 409.911 594.572 409.911 594.272 409.911 591.172 407.912 587.473 405.512 583.874 403.013 576.975 398.914 572.076 396.314 567.277 393.715 558.479 388.816 552.381 385.417 546.382 381.917 532.985 374.919 522.687 369.62L503.891 360.122 503.791 365.321C503.691 368.12 503.691 376.019 503.791 382.917 503.891 393.515 503.591 395.914 501.792 399.514 494.493 414.71 472.598 414.21 465.899 398.714 462.4 390.516 464 382.617 470.598 376.119 473.198 373.519 479.796 370.92 483.795 370.92 487.695 370.92 493.593 372.819 495.493 374.619 496.793 376.019 497.193 376.019 497.992 374.819 498.492 374.019 498.692 372.52 498.392 371.42 498.192 370.32 497.892 366.421 497.892 362.822L497.892 356.223 489.194 350.424C475.197 341.226 471.898 338.227 471.898 334.928 471.898 332.228 474.098 329.929 476.597 329.929 476.997 329.929 481.896 333.328 487.395 337.427L497.393 344.825 497.592 312.632C497.792 290.337 498.192 279.74 499.092 278.24L500.192 275.94 555.48 275.94 610.768 275.94 611.068 332.728 611.368 389.416 616.567 400.114C619.366 406.012 621.966 412.111 622.266 413.611 622.665 415.31 624.365 417.31 626.465 418.71 631.264 421.809 632.563 425.508 630.064 428.807 626.965 432.906 624.665 432.607 618.466 427.008ZM491.494 401.813C497.193 398.314 499.292 391.115 496.493 384.517 494.393 379.418 490.494 376.919 484.695 376.919 470.798 376.919 464.2 390.016 473.198 399.814 478.097 405.112 484.895 405.912 491.494 401.813ZM576.175 370.02C590.772 360.222 592.372 359.522 595.671 361.122 597.371 361.922 599.67 364.821 601.77 368.72 603.77 372.52 605.469 374.719 605.969 374.219 606.469 373.719 606.769 353.624 606.669 326.829L606.369 280.439 555.18 280.139 503.891 279.94 503.891 314.332 503.891 348.825 510.69 352.724C514.389 354.923 524.587 360.322 533.385 364.721 542.183 369.22 552.781 374.819 556.88 377.218L564.378 381.518 565.178 379.218C565.678 377.818 570.277 374.019 576.175 370.02Z" transform="matrix(1 0 0 -1.00003 164.068 695.736)"/><path d="M544.382 343.626C542.183 337.527 539.883 328.929 539.883 326.729 539.883 324.33 540.283 324.03 544.182 323.43 553.78 322.13 555.08 322.33 555.48 324.53 555.78 326.229 555.18 326.829 552.781 327.329 550.981 327.629 548.581 327.929 547.282 327.929 545.982 327.929 544.882 328.029 544.882 328.229 544.882 328.329 545.782 331.328 546.882 334.728 547.982 338.227 548.881 341.726 548.881 342.426 548.881 344.126 544.882 345.125 544.382 343.626Z" transform="matrix(1 0 0 -1.00003 164.068 695.736)"/></g></g></g></svg>